<?xml version="1.0" encoding="UTF-8"?>
<svg id="Layer_2" data-name="Layer 2" xmlns="http://www.w3.org/2000/svg" viewBox="0 0 942.62 161.47">
  <defs>
    <style>
      .cls-1 {
        fill: #375c9c;
      }

      .cls-2 {
        fill: #365c9d;
      }
    </style>
  </defs>
  <g id="Layer_1-2" data-name="Layer 1">
    <path d="M284.6,160.74c-3.31,0-5.11-2.34-6.55-4.23-14.65-19.09-30.26-39.46-45.95-60.01-.97-1.27-1.75-2.59-2.59-3.99-.39-.65-.8-1.35-1.27-2.09-.61-.97-.77-2.15-.45-3.24.32-1.1,1.09-2,2.12-2.49.8-.38,1.56-.73,2.29-1.06,1.46-.67,2.73-1.25,3.91-1.9.95-.52,1.91-1.02,2.88-1.52,2.55-1.32,4.95-2.56,6.91-4.15,8.95-7.25,11.83-16.73,8.81-29.01-1.01-4.09-3.8-7.4-8.53-10.12-5.1-2.93-10.74-4.18-18.88-4.18-2.77,0-5.58.14-8.52.29-.35,31.28-.24,62.85-.13,93.42.03,9.19.06,18.41.08,27.66,0,1.06-.42,2.08-1.17,2.83-.75.75-1.77,1.17-2.83,1.17-4.79,0-9.47.04-14.16.07-4.82.03-9.65.07-14.57.07-1.66,0-3.33,0-5.01-.01-2.19-.01-3.97-1.79-3.98-3.98,0-1.12-.02-2-.03-2.81-.01-.97-.02-1.83-.02-2.84.05-39.18.12-78.36.19-117.55l.04-20.3c0-.5,0-1.01.03-1.51.3-5.15,1.68-7.98,8.14-8.17,3.67-.11,7.34-.12,10.78-.12h3.33c1.26,0,2.54,0,3.84,0,2.84-.02,5.67-.04,8.49-.04,12.33,0,25.56.31,38.78,2.55,9.84,1.66,18.49,4.58,26.47,8.91,10.66,5.79,18.27,15.52,20.88,26.67,2.63,11.27.05,23.18-7.25,33.54-2.84,4.03-6.4,7.4-9.84,10.66-1.32,1.25-2.68,2.54-3.95,3.82-.69.7-1.41,1.34-2.13,1.95,6.35,8.47,13.26,16.6,19.96,24.5,7.87,9.28,16.02,18.88,23.38,29.12.68.95.92,2.15.64,3.29-.28,1.14-1.04,2.09-2.09,2.62-.53.27-1.01.52-1.45.75-.97.51-1.89,1-2.92,1.4-3.8,1.47-7.61,2.93-11.42,4.39-3.87,1.48-7.74,2.96-11.6,4.46-1.78.69-3.16,1.18-4.67,1.18Z"/>
    <path class="cls-2" d="M203.34,4.97c15.93-.11,31.31-.13,46.59,2.45,8.9,1.51,17.28,4.17,25.23,8.48,19.26,10.47,26.65,33.99,12.27,54.39-3.67,5.21-8.82,9.38-13.36,13.97-1.44,1.46-3.1,2.7-4.74,4.12,14.32,19.71,31.27,36.75,45.54,56.61-1.66.83-2.8,1.52-4.02,2-7.66,2.97-15.36,5.87-23.02,8.84-3.71,1.44-4.19,1.39-6.6-1.75-15.33-19.99-30.66-39.98-45.95-60-1.25-1.63-2.21-3.48-3.64-5.77,2.43-1.15,4.47-2.01,6.41-3.07,3.52-1.93,7.3-3.57,10.38-6.07,10.7-8.66,13.36-20.13,10.18-33.07-1.4-5.68-5.38-9.74-10.42-12.63-10.33-5.94-21.49-4.82-33.34-4.22-.51,41.74-.18,82.95-.09,124.89-11.36,0-22.17.18-33.72.12-.01-2.46-.05-3.78-.05-5.63.06-45.85.15-91.7.23-137.55,0-.52,0-1.05.02-1.57.22-3.84.51-4.29,4.26-4.4,5.77-.17,11.55-.09,17.85-.12Z"/>
    <path d="M129.03,161.35c-1.55,0-3.02-.91-3.67-2.4-.28-.64-.56-1.26-.84-1.87-.6-1.33-1.23-2.71-1.76-4.14-1.6-4.28-3.18-8.56-4.76-12.85-2.55-6.91-5.19-14.06-7.85-21.05-.21-.55-.59-1.54-.87-2.14-.51-.03-1.29-.03-2-.03h-.25c-16.44-.02-32.89-.06-49.33-.11h-1.04c-.62,0-1.94,0-2.6.08-.3.57-.77,1.79-1.22,2.99l-.05.13c-3.95,10.4-8.19,21.46-12.96,33.83-1.19,3.07-2.66,6.89-7.16,6.89-1.56,0-3.15-.49-5.23-1.19-4.53-1.52-9.05-3.06-13.64-4.62-3.64-1.24-7.33-2.49-11.1-3.76-1.02-.34-1.85-1.08-2.32-2.04-.47-.96-.53-2.07-.17-3.08,2.39-6.74,5.12-13.64,8.36-21.1,6.32-14.54,12.67-29.07,19.01-43.6,3.65-8.36,7.31-16.73,10.96-25.1,1.67-3.83,3.35-7.66,5.03-11.49,5.24-11.96,10.65-24.32,15.78-36.55.83-1.99,3.37-8.05,10.64-8.05.68,0,1.4.05,2.13.16.11-.01.25-.03.41-.05.22-.03.48-.06.76-.09.13-.01.26-.02.39-.02.64,0,1.26,0,1.86,0,.95,0,1.86,0,2.78.01.92,0,1.84.01,2.8.01h.89c1.75,0,3.39.02,5.01.03,1.67.02,3.34.03,5.11.03h.21c.85-.1,1.66-.15,2.43-.15,8.1,0,11.42,5.46,13.6,10.81,7.32,17.97,15.2,36.09,22.83,53.62,2.08,4.77,4.15,9.54,6.22,14.32,5.59,12.9,11.21,25.79,16.84,38.67,3.47,7.95,6.94,15.89,10.4,23.85.36.82.59,1.59.86,2.48.12.4.26.85.43,1.36.69,2.09-.45,4.35-2.54,5.05l-33.15,11.01c-.42.14-.84.21-1.26.21ZM64.74,88.63c10.63.15,22.54.32,34.26.39-4.55-12.29-9.11-24.43-13.94-37.28l-2.61-6.94-.52-1.13c-4.02,9.36-7.52,18.89-11.19,28.87-1.94,5.28-3.93,10.69-6.01,16.1Z"/>
    <path class="cls-2" d="M73.73,4.07c2.92-.03,5.39.02,8.31.01,3.67,0,6.88.07,10.57.06,6.9-.9,9.68,2.27,12.07,8.16,9.3,22.83,19.28,45.39,29.09,68.02,9.04,20.86,18.17,41.68,27.24,62.53.41.94.65,1.95,1.16,3.48-11.04,3.67-21.87,7.26-33.15,11.01-.89-2.06-1.8-3.9-2.51-5.82-4.22-11.3-8.32-22.65-12.62-33.93-1.84-4.82-2-4.74-6.84-4.75-16.44-.03-32.88-.06-49.33-.11-6.51-.02-6.46-.03-8.66,5.78-4.28,11.28-8.61,22.55-12.96,33.8-1.89,4.88-2.28,5.06-7.38,3.34-8.12-2.73-16.22-5.51-24.73-8.38,2.49-7.02,5.28-13.97,8.26-20.84,9.95-22.91,19.98-45.79,29.97-68.69,6.98-16.01,14.07-31.98,20.82-48.09,1.76-4.21,4.16-6.16,8.65-5.45.51.08,1.04-.04,2.02-.14M86.15,43.25c-1.2-2.61-2.4-5.22-3.6-7.84-.44,0-.88,0-1.32.01-8.47,18.27-14.52,37.5-22.1,56.57,1.96.29,3.13.59,4.3.61,11.89.17,23.78.34,35.67.41,4.68.03,5.31-.91,3.68-5.31-5.41-14.59-10.89-29.15-16.63-44.46Z"/>
    <path d="M365.27,161.47c-.41,0-.83-.06-1.24-.2l-31.23-10.21c-1.07-.35-1.94-1.14-2.41-2.16-.46-1.03-.47-2.2-.02-3.24L392.24,3.73c.88-2.01,2.86-3.31,5.05-3.31h1.59s.74,0,.74,0c1.17-.02,2.3-.04,3.52-.04.46,0,.94,0,1.43,0,.15,0,.31.01.46.03h10.75c3.61-.02,7.9-.05,12.19-.16h.34c6.47,0,8.55,4.92,9.24,6.54,8.72,20.58,18.35,43.1,30.31,70.86,4.85,11.25,9.73,22.48,14.62,33.72,3.41,7.84,6.82,15.68,10.22,23.53.9,2.08,1.73,4.19,2.62,6.42.43,1.09.88,2.22,1.36,3.41.41,1.02.38,2.17-.08,3.17-.46,1-1.31,1.77-2.35,2.12l-32.85,11.11c-.42.14-.86.21-1.28.21-1.53,0-2.98-.89-3.65-2.36-.29-.64-.57-1.25-.85-1.83-.61-1.29-1.18-2.51-1.68-3.83-1.86-4.91-3.71-9.83-5.55-14.75-2.45-6.54-4.91-13.08-7.4-19.61-.23-.59-.56-1.48-.82-2.04-.55-.03-1.4-.03-2.17-.04l-51.39-.15c-.36,0-1.18,0-1.72.04-.27.58-.65,1.59-.9,2.25-2.76,7.31-5.52,14.77-8.18,21.98-1.47,3.97-2.93,7.95-4.41,11.92-.46,1.24-.96,2.44-1.53,3.83-.28.68-.58,1.4-.9,2.2-.63,1.55-2.12,2.5-3.71,2.5ZM395.35,88.71c4.17.24,9.59.37,15.46.37,8.49,0,14.84-.26,18.55-.54-3.22-11.2-12.01-33.81-16.99-44.65-.37.92-1.93,4.89-1.93,4.89l-3.63,9.57c-3.67,9.68-7.35,19.37-10.99,29.06-.16.43-.31.87-.46,1.32Z"/>
    <path class="cls-1" d="M489.02,136.5c-8.26-19.09-16.6-38.15-24.83-57.26-10.17-23.6-20.3-47.22-30.32-70.89-1.18-2.79-2.67-4.17-5.8-4.1-4.09.1-8.19.14-12.28.16h-11.25s0-.02,0-.03c-1.75-.02-3.28,0-4.76.03h-.06c-.27,0-.54.01-.8.02h-1.61c-.6-.02-1.15.34-1.39.89l-61.87,141.94,31.23,10.21c.97-2.4,1.72-4.14,2.38-5.92,4.2-11.31,8.33-22.64,12.6-33.92,1.86-4.93,1.98-4.89,7.26-4.87,16.79.05,33.58.1,50.36.14,4.98.01,5.07-.03,6.85,4.65,4.36,11.44,8.62,22.91,12.95,34.36.66,1.75,1.52,3.42,2.43,5.44,11.08-3.75,21.71-7.35,32.85-11.11-1.47-3.65-2.63-6.72-3.93-9.74ZM390.09,92.31c.67-2.17,1.21-4.29,1.98-6.32,4.86-12.91,9.76-25.8,14.65-38.69,1.65-4.17,2.99-7.58,4.39-10.96.17-.42.72-.68,1.09-1.02,3.51,3.42,20.04,45.77,22.11,56.53-3.11,1.35-32.98,1.73-44.22.47Z"/>
    <path d="M810.93,161.47c-.41,0-.83-.06-1.24-.2l-31.23-10.21c-1.07-.35-1.95-1.14-2.41-2.16-.46-1.03-.47-2.2-.02-3.24L837.9,3.73c.88-2.01,2.86-3.31,5.05-3.31h1.59s.74,0,.74,0c1.17-.02,2.3-.04,3.52-.04.46,0,.94,0,1.43,0,.16,0,.31.01.46.03h10.74c3.61-.02,7.9-.05,12.18-.16h.34c6.47,0,8.55,4.92,9.24,6.54,8.68,20.48,18.31,42.99,30.32,70.87,4.84,11.24,9.72,22.46,14.6,33.69,3.41,7.85,6.83,15.71,10.23,23.56.9,2.08,1.74,4.2,2.62,6.43.43,1.08.87,2.21,1.35,3.4.41,1.02.38,2.17-.08,3.17-.46,1-1.31,1.77-2.35,2.12l-32.85,11.11c-.42.14-.86.21-1.28.21-1.53,0-2.98-.89-3.65-2.36-.29-.64-.57-1.24-.84-1.82-.61-1.29-1.18-2.52-1.68-3.84-1.86-4.91-3.71-9.83-5.55-14.75-2.45-6.54-4.91-13.08-7.4-19.61-.23-.59-.56-1.48-.82-2.04-.55-.03-1.4-.03-2.17-.04l-51.39-.15c-.36,0-1.18,0-1.72.04-.27.58-.65,1.59-.9,2.25-2.78,7.35-5.55,14.85-8.22,22.1-1.45,3.93-2.91,7.87-4.37,11.8-.46,1.25-.96,2.44-1.53,3.83-.28.67-.58,1.4-.9,2.19-.63,1.55-2.12,2.5-3.71,2.5ZM841.01,88.71c4.17.24,9.59.37,15.46.37,8.49,0,14.84-.26,18.55-.54-3.22-11.2-12.01-33.81-16.99-44.66-.36.89-1.93,4.89-1.93,4.89l-3.61,9.51c-3.68,9.7-7.36,19.41-11.02,29.12-.16.43-.31.87-.46,1.32Z"/>
    <path class="cls-1" d="M934.69,136.5c-8.26-19.09-16.6-38.15-24.83-57.26-10.17-23.6-20.3-47.22-30.32-70.89-1.18-2.79-2.67-4.17-5.8-4.1-4.09.1-8.19.14-12.28.16h-11.25s0-.02,0-.03c-1.75-.02-3.28,0-4.76.03h-.06c-.27,0-.54.01-.8.02h-1.61c-.6-.02-1.15.34-1.39.89l-61.87,141.94,31.23,10.21c.97-2.4,1.72-4.14,2.38-5.92,4.2-11.31,8.33-22.64,12.6-33.92,1.86-4.93,1.98-4.89,7.26-4.87,16.79.05,33.58.1,50.36.14,4.98.01,5.07-.03,6.85,4.65,4.36,11.44,8.62,22.91,12.95,34.36.66,1.75,1.52,3.42,2.43,5.44,11.08-3.75,21.71-7.35,32.85-11.11-1.47-3.65-2.63-6.72-3.93-9.74ZM835.75,92.31c.67-2.17,1.21-4.29,1.98-6.32,4.86-12.91,9.76-25.8,14.65-38.69,1.65-4.17,2.99-7.58,4.39-10.96.17-.42.72-.68,1.09-1.02,3.51,3.42,20.04,45.77,22.11,56.53-3.11,1.35-32.98,1.73-44.22.47Z"/>
    <path class="cls-1" d="M685.45,35.78s.05.01.07,0-.06-.03-.07,0Z"/>
    <path d="M555.86,158.51c-.68,0-1.31-.05-1.9-.1h-3.04c-2.21,0-4-1.79-4-4,0,0,0-5.72,0-5.77,0-.26-.02-.52-.01-.79.07-35.7.17-71.39.27-107.08,0-.67,0-1.35,0-2.03,0-.54-.02-1.28-.05-1.91-.67-.03-1.46-.03-1.94-.03-2.4,0-4.8,0-7.2,0-7.08,0-14.17.02-21.25.04l-9.33.03h-6.55c-2.21,0-4-1.79-4-4V6.2c0-1.06.42-2.08,1.17-2.83s1.77-1.17,2.83-1.17h13.08c.09,0,.17,0,.26,0,19.34.02,38.68.05,58.02.07,17.32.02,34.63.05,51.95.07,31.78.03,63.56.04,95.33.06l53.53.03c2.21,0,4,1.79,4,4v26.53c0,2.21-1.79,4-4,4h-6.89c-3.64.02-7.29.03-10.95.04-8.96.03-18.22.06-27.32.17-.5,0-.9.02-1.21.03-.03.49-.05,1.01-.06,1.25l-.09,2.39v113.27c0,2.21-1.79,4-4,4h-34.66c-2.21,0-4-1.79-4-4V36.9h-1.43c-13.3,0-27.06.02-40.61.1l-10.93-.05c-3.2,0-6.41,0-9.62,0-11.47,0-20.9.04-29.68.13-.67,0-1.97.02-2.85.09-.06.85-.06,2.08-.06,2.78-.03,20.93-.04,41.86-.05,62.79,0,14.07-.01,28.13-.02,42.2v1.63c0,1.17,0,2.17-.01,3.03v4.83c0,2.21-1.79,4-4,4h-5.12c-.55.01-1.26.02-2.06.02-.63,0-1.32,0-2.08.02-3.72.05-7.71.07-12.93.07h-6.55Z"/>
    <path class="cls-1" d="M767.31,6.44h-1.42c-47.24-.03-94.48-.05-141.72-.09-36.74-.04-73.49-.11-110.23-.14h0s-6.8,0-6.8,0c-.18,0-.37,0-.55,0,0,0-.01,0-.02,0h-5.71v20.31h0v6.36h6.54c12.59-.03,25.19-.09,37.79-.06,5.76.02,5.89.22,5.98,5.88.01.7.01,1.4.01,2.1-.1,35.69-.2,71.38-.27,107.08,0,.3.01.61.02.91h0v5.63h3.22c.6.05,1.17.1,1.73.1,6.48.01,12.95.02,19.42-.06,1.68-.02,3.06-.02,4.19-.04h5.12v-4.92c.03-1.2.01-2.7.01-4.57.03-34.99.02-69.99.07-104.98,0-6.46.3-6.81,6.87-6.87,13.12-.13,26.24-.14,39.36-.12l10.89.05c13.55-.08,27.08-.09,40.63-.1h2.08c1.85,0,3.35,1.5,3.35,3.35v117.87h34.66V40.78c.03-.82.06-1.64.09-2.46.17-4.62.5-5.08,5.22-5.14,12.77-.15,25.55-.15,38.32-.21h6.89V6.44h-5.73Z"/>
    <polygon points="602.35 113.75 602.35 112.15 602.31 110.15 602.31 90.91 602.35 90.91 602.35 89.27 628.11 89.27 628.11 113.75 602.35 113.75"/>
    <polygon class="cls-1" points="604.35 91.27 604.35 92.91 604.31 92.91 604.31 110.15 604.35 110.15 604.35 111.75 626.11 111.75 626.11 107.78 626.11 105.07 626.11 97.95 626.11 91.27 604.35 91.27"/>
    <rect x="624.51" y="82.91" width="10.64" height="37.2" transform="translate(731.34 -528.32) rotate(90)"/>
    <rect class="cls-1" x="613.23" y="98.19" width="33.2" height="6.64"/>
  </g>
</svg>