<svg width="22" height="19" viewBox="0 0 22 19" fill="none" xmlns="http://www.w3.org/2000/svg">
<path d="M9.53864 0.0235369C4.27876 0.0235369 0 3.71883 0 8.26146C0 12.8041 4.27876 16.4994 9.53864 16.4994C11.1466 16.4994 12.7273 16.1699 14.0627 15.5344C14.1697 15.6455 14.2883 15.748 14.417 15.8403L17.1423 18.194C17.394 18.4386 17.7008 18.6361 18.0441 18.7745C18.3873 18.913 18.7597 18.9893 19.1384 18.999C19.517 19.0086 19.894 18.9513 20.2461 18.8305C20.5981 18.7098 20.9179 18.5282 21.1858 18.2968C21.4537 18.0655 21.664 17.7893 21.8038 17.4852C21.9436 17.1812 22.0099 16.8556 21.9988 16.5286C21.9877 16.2016 21.8992 15.88 21.739 15.5835C21.5787 15.2871 21.3499 15.0221 21.0668 14.8047L18.3415 12.451C18.2087 12.3363 18.0626 12.2338 17.9054 12.145C18.6412 10.9917 19.1045 9.65013 19.1045 8.23792C19.1045 3.6953 14.8258 0 9.5659 0L9.53864 0.0235369ZM9.53864 2.37723C13.3268 2.37723 16.352 4.98983 16.352 8.26146C16.352 9.81489 15.6979 11.2506 14.5532 12.3098C14.526 12.3333 14.4987 12.3569 14.4715 12.3804C14.3428 12.4728 14.2242 12.5752 14.1172 12.6864C12.918 13.6279 11.2829 14.1692 9.51139 14.1692C5.72319 14.1692 2.69807 11.5566 2.69807 8.28499C2.69807 5.01336 5.72319 2.40076 9.51139 2.40076L9.53864 2.37723Z" fill="white"/>
</svg>
