<svg width="31" height="25" viewBox="0 0 31 25" fill="none" xmlns="http://www.w3.org/2000/svg">
<path d="M15.2588 8.13965L19.5093 12.2139L19.5295 12.0005C19.5295 9.85987 17.7146 8.12025 15.4814 8.12025L15.2588 8.13965Z" fill="#A7A3FF"/>
<path d="M15.4816 5.53347C19.2058 5.53347 22.2284 8.43073 22.2284 12.0006C22.2284 12.8348 22.053 13.6303 21.7494 14.361L25.6963 18.1442C27.7338 16.5145 29.3396 14.4063 30.3314 12.0006C27.9902 6.32249 22.2352 2.29996 15.4817 2.29996C13.5925 2.29996 11.7844 2.62329 10.1045 3.20533L13.0191 5.99261C13.7814 5.70808 14.6113 5.53347 15.4816 5.53347Z" fill="#A7A3FF"/>
<path d="M1.98801 2.00888L5.06455 4.95786L5.67853 5.54638C3.45209 7.21488 1.69117 9.43311 0.638672 12.0005C2.97309 17.6786 8.73483 21.7011 15.4817 21.7011C17.5732 21.7011 19.5702 21.3131 21.3986 20.6081L21.9721 21.1578L25.9055 24.9346L27.626 23.292L3.70845 0.359779L1.98801 2.00888ZM9.45002 9.155L11.5348 11.1533C11.4741 11.4314 11.4336 11.7095 11.4336 12.0005C11.4336 14.1411 13.2484 15.8807 15.4817 15.8807C15.7853 15.8807 16.0754 15.8419 16.3588 15.7837L18.4435 17.782C17.5462 18.2089 16.5477 18.4676 15.4817 18.4676C11.7574 18.4676 8.73483 15.5703 8.73483 12.0005C8.73483 10.9787 9.00473 10.0216 9.45002 9.155Z" fill="#A7A3FF"/>
</svg>
